<svg version="1" xmlns="http://www.w3.org/2000/svg" width="2000" height="2000" viewBox="0 0 1500.000000 1500.000000"><path d="M731.5.7c-60.1 7.2-108.3 38.5-137.7 89.4-3.9 6.8-11.1 22.1-13.1 28.2-.6 1.4-1.9.7-8.9-4.7-21.4-16.4-46.2-27.8-74-33.8-8.9-1.9-13.4-2.2-33.8-2.2-20.6-.1-24.9.2-34.6 2.2-56 11.3-102.8 47.5-126.8 98.2-13.3 28.3-19.3 60-16.7 88.6.6 7.1 1.4 15 1.7 17.5l.6 4.7-7.7-1.4c-33.5-5.8-73.3.5-106 16.9-27.7 13.8-51.7 35.1-68.3 60.6-10.8 16.5-20.5 38.6-24.8 56.6-6 25.4-6 59.4.1 83.8 6.4 25.1 19.6 51.9 34.8 70 2.2 2.6 3.8 4.9 3.6 5-.2.2-4.7 2-9.9 4.1-39 15.5-73.2 47.5-91.9 85.9-8.9 18.2-14.7 38-17.2 58.1-1.6 13.2-.6 37.8 2.1 52.4 8.6 46.9 37.3 90.2 76.5 115.8 10.7 7 25.5 14.7 33.5 17.5 3.6 1.2 6.7 2.4 6.9 2.5.2.2-1.4 2.5-3.6 5.1-10.6 12.6-22.2 33.2-28.6 50.3-8.3 22.4-11.2 40.7-10.4 67.5.4 15.1 1 21.4 3 30.5 11.8 53.9 46 98.6 93.7 122.5 33.9 17 72.4 22.9 110.4 16.8l3.9-.6-.6 4.4c-.4 2.4-1.2 9.7-1.8 16.2-2 20.7 1.3 47.3 8.7 70.2 3.6 11.1 14.1 32.3 21.1 42.7 25.6 38.2 65.8 64.9 112.8 74.9 9.9 2.2 13.5 2.4 35 2.3 20.9 0 25.3-.3 34.3-2.2 28.8-6.2 56.1-18.9 76.4-35.5 3.2-2.6 5.9-4.7 6.1-4.7.2 0 .9 1.9 1.6 4.2 2.1 7 11.5 25.7 17.8 35.3 24 36.4 60 62.8 100.9 74.1 14.7 4 24.9 5.5 40.9 6.1 66.4 2.5 127.1-30.9 161-88.7 3.7-6.2 8.7-17 13.6-28.8.9-2.2 1-2.2 7.6 3.1 20.7 16.6 49.3 29.6 77.9 35.4 7 1.4 13.9 1.8 31.9 1.8 20 0 24.5-.3 34.1-2.3 55.8-11.3 101.2-46.1 125.9-96.7 10.2-21 15.6-40.7 17.6-64.7 1.2-13.2.6-26.2-1.8-42.7l-.6-4.4 3.9.6c27.8 4.7 58.3 2.3 86.1-6.8 92.2-30.2 142.8-130.2 113.1-223.4-5.8-18.3-17.4-40.1-29-54.8-3.3-4.1-5.8-7.6-5.6-7.7.2-.1 2.6-1.1 5.3-2.1 9.2-3.3 26-12.3 36.6-19.4 29.9-20.1 52.1-47.9 65.9-82.6 17.6-44.3 15.5-96.1-5.6-140.5-16.9-35.5-44.2-63.5-79.4-81.4-8-4.1-16.4-8-18.7-8.7-2.4-.7-4.3-1.4-4.3-1.7 0-.2 1.7-2.5 3.9-5.1 16.7-20 30.3-49.2 36.2-78.1 2.1-10.2 2.4-14.1 2.4-34.5-.1-19.9-.4-24.4-2.3-33.5-7.3-34.3-23-64.4-46.1-88.3-27.7-28.8-59.9-45.8-99.5-52.9-14.9-2.6-42.5-2.9-55-.5l-7.8 1.5.6-5.2c3.2-25.9 2.8-43.8-1.5-64.9-14.1-69.7-69-124.3-139.5-138.8-14.2-2.9-43.8-3.7-59.5-1.5-13 1.8-32.3 7-43.2 11.6-15.7 6.7-35.5 18.6-45.5 27.4-1.8 1.6-3.4 2.7-3.6 2.5-.1-.2-1.3-3.1-2.6-6.4C892.5 58.2 842.7 15.8 785.7 4 769.1.6 744.5-.9 731.5.7zm77.8 416.8c29.6 4.4 55.5 14.1 78.2 29.3 41.5 27.7 67.6 72.9 74.5 128.7 1.7 13.2 1.4 44.8-.5 59-4.1 31.2-13.1 58-29.3 87-33.7 60.6-90.7 105.8-159.3 126.1-6.7 2-15 4.2-18.3 4.8l-6.1 1.3-.5 53.4c-.6 60.1-.2 57.4-8.3 61.9-13.1 7.4-42.5-.6-49.4-13.3-1.7-3-1.8-15.4-2.3-211.2-.4-176.9-.7-208.9-2-213.7-1.3-5.2-1.2-6.1.3-9.2 2.4-5 8.3-7.8 17.9-8.4 17.6-1 33.9 7.3 40.5 20.6l2.8 5.7.3 128.4.2 128.4 5.3-.7c8.5-1.2 31.4-9.2 43.2-15.1 63.7-32.3 103.4-92.3 107.3-162.3 2.1-38.1-5.7-69.4-24-95.8-12.7-18.5-35.4-35.6-56.8-42.9-31.4-10.7-83-7.7-119.5 7-53.6 21.6-85.6 66.2-94 131-2.1 16-2.1 45.9 0 59.9 3.5 23.7 12.2 46 23 59.1 2.9 3.6 3.7 4.1 6.8 3.7 2.8-.3 3.8.1 5.5 2.2 3.3 4.2 3.6 9.5 1.2 18.3-4.7 17.2-15.8 34.6-25.1 39.4-7.9 4-12.9 1.9-23.8-9.8-16.4-17.5-29.5-41.7-38.4-71.3-13.7-45.3-12.3-104.9 3.5-153 8.2-25.1 19.5-46.8 35.1-67.5 7.5-9.9 26.7-29.1 36.7-36.7 33-24.9 73.8-40.6 116.5-44.7 14.6-1.5 47.7-1.2 58.8.4z"/></svg>