<?xml version="1.0" standalone="no"?>
<!DOCTYPE svg PUBLIC "-//W3C//DTD SVG 20010904//EN"
 "http://www.w3.org/TR/2001/REC-SVG-20010904/DTD/svg10.dtd">
<svg version="1.0" xmlns="http://www.w3.org/2000/svg"
 width="192.000000pt" height="192.000000pt" viewBox="0 0 192.000000 192.000000"
 preserveAspectRatio="xMidYMid meet">
<metadata>
Created by potrace 1.11, written by Peter Selinger 2001-2013
</metadata>
<g transform="translate(0.000000,192.000000) scale(0.100000,-0.100000)"
fill="#000000" stroke="none">
<path d="M882 1907 c-45 -17 -99 -62 -118 -100 -9 -18 -17 -33 -18 -34 -1 -1
-24 9 -51 22 -67 34 -135 34 -206 -2 -76 -39 -112 -93 -117 -177 l-4 -64 -64
-4 c-84 -5 -138 -41 -176 -117 -37 -71 -37 -139 -3 -206 23 -47 21 -64 -7 -65
-19 0 -74 -61 -94 -105 -32 -67 -31 -127 2 -194 23 -46 79 -101 115 -113 5 -2
-2 -25 -16 -52 -77 -151 35 -326 208 -326 l37 0 0 -50 c0 -64 26 -117 81 -163
71 -62 164 -71 253 -25 25 13 42 16 44 10 11 -35 66 -92 109 -113 112 -55 241
-11 308 106 10 16 13 16 55 -6 60 -32 148 -32 207 -1 75 39 123 119 123 206 0
35 1 36 36 36 87 0 167 48 206 123 31 59 31 147 -1 207 -22 42 -22 45 -6 55
67 38 115 104 128 173 15 77 -33 182 -102 224 -20 12 -37 23 -39 24 -2 1 6 20
16 41 46 89 36 181 -26 253 -44 52 -101 79 -164 80 l-48 0 0 38 c0 61 -19 111
-58 154 -72 80 -175 100 -268 53 -27 -14 -50 -21 -52 -16 -1 4 -16 26 -33 49
-56 76 -168 111 -257 79z m194 -532 c57 -17 115 -70 139 -127 17 -43 20 -136
5 -190 -25 -89 -115 -181 -210 -215 l-50 -18 0 -68 c0 -74 -8 -85 -55 -73
l-25 6 0 285 0 285 30 0 c19 0 33 -7 40 -19 6 -11 10 -89 10 -180 0 -89 2
-161 5 -161 19 0 77 32 109 60 55 49 79 103 80 180 2 121 -57 175 -182 168
-61 -3 -76 -8 -109 -34 -54 -43 -83 -105 -83 -175 0 -64 13 -108 37 -126 13
-10 14 -17 3 -42 -17 -42 -35 -45 -64 -11 -58 70 -69 206 -24 300 32 65 41 77
91 115 68 51 165 66 253 40z"/>
</g>
</svg>
